<svg width="500" height="500" viewBox="0 0 500 500" fill="none" xmlns="http://www.w3.org/2000/svg">
<circle cx="250" cy="250" r="250" fill="#0E3F82"/>
<path d="M151.772 126.612V236H202.612C233.936 236 253.124 215.5 253.124 182.536C253.124 160.232 247.384 146.128 234.1 135.796C226.392 129.728 216.224 126.612 203.76 126.612H151.772ZM196.216 208.776H186.704V153.836H195.888C212.124 153.836 218.684 161.708 218.684 181.388C218.684 186.472 217.7 192.868 216.224 197.46C215.076 200.248 213.108 203.036 210.648 204.84C207.368 207.3 201.956 208.776 196.216 208.776ZM289.749 201.56H255.637C256.293 211.236 257.605 215.992 261.049 221.404C268.757 233.704 285.485 240.428 306.641 240.428C322.385 240.428 335.177 236.328 343.049 228.456C349.609 222.06 353.381 212.548 353.381 202.544C353.381 193.196 350.265 186.308 343.541 180.404C336.817 174.992 330.093 172.04 311.725 167.284C301.065 164.496 296.965 162.856 294.833 161.052C293.357 159.904 292.537 158.428 292.537 156.624C292.537 152.196 297.457 148.588 303.853 148.588C307.625 148.588 311.233 149.572 313.693 152.032C316.153 154 316.809 155.968 317.957 160.724H350.921C350.429 152.032 349.117 147.112 345.181 141.044C337.801 129.892 323.697 123.824 304.837 123.824C287.945 123.824 275.153 127.76 267.445 135.468C261.049 141.372 257.605 150.228 257.605 159.412C257.605 176.632 267.773 186.964 291.389 193.524L307.625 197.788C315.497 199.756 318.777 202.38 318.777 206.48C318.777 211.564 314.185 214.516 306.477 214.516C295.489 214.516 291.061 210.908 289.749 201.56Z" fill="white"/>
<path d="M159.772 260.612V370H194.212V307.68L230.62 370H264.732V260.612H230.292V322.932L194.212 260.612H159.772ZM305.482 260.612V370H339.922V260.612H305.482Z" fill="white" fill-opacity="0.75"/>
</svg>
