<svg width="1859" height="500" viewBox="0 0 1859 500" fill="none" xmlns="http://www.w3.org/2000/svg">
<rect width="1859" height="500" rx="56" fill="#0E3F82"/>
<path d="M305.8 173.2C305.8 187.2 302 199.8 294.4 211C286.8 222.2 275.933 231 261.8 237.4C247.8 243.8 231.533 247 213 247V247.2H175.8V247H131V99H212.8C231.467 99 247.8 102.2 261.8 108.6C275.933 114.867 286.8 123.667 294.4 135C302 146.2 305.8 158.933 305.8 173.2ZM213 202.4C223.4 202.4 232.067 200.067 239 195.4C246.067 190.6 249.6 183.2 249.6 173.2C249.6 167.6 247.867 162.533 244.4 158C240.933 153.467 236.4 150 230.8 147.6C225.2 145.067 219.267 143.8 213 143.8H188V202.4H213ZM456.166 247L415.166 199.2H395.766V247H341.766V99H456.966C469.366 99 480.299 101.067 489.766 105.2C499.366 109.333 506.766 115.133 511.966 122.6C517.299 129.933 519.966 138.467 519.966 148.2V149C519.966 161.667 516.232 172.133 508.766 180.4C501.432 188.667 491.232 194.2 478.166 197L521.166 247H456.166ZM467.366 149C467.366 145 466.432 142.133 464.566 140.4C462.832 138.533 460.432 137.4 457.366 137C454.432 136.6 449.899 136.4 443.766 136.4H437.366C433.232 136.533 419.366 136.6 395.766 136.6V161H443.566H443.766C449.899 161 454.432 160.8 457.366 160.4C460.432 160 462.832 159 464.566 157.4C466.432 155.667 467.366 152.867 467.366 149ZM614.219 247H557.219V99H614.219V247ZM728.113 247L811.913 99L728.113 247ZM757.713 194.8L811.913 99H868.913L789.113 247H724.113L646.312 99H707.313L757.713 194.8ZM1046.02 192.2H957.82V207.6L1062.82 207V247H900.82V99H1062.82L1063.02 139H957.82V153.2H1046.02V192.2ZM1307.26 182.2L1352.06 99H1409.06L1329.26 247H1272.26L1250.06 175.8L1226.86 247H1169.86L1092.06 99H1149.06L1192.66 182.2L1222.06 99H1279.06L1307.26 182.2ZM1590.45 247H1533.45L1521.25 224.6H1442.25L1430.05 247H1373.05L1453.25 99H1510.25L1590.45 247ZM1481.85 151.6L1461.85 188.2H1501.65L1481.85 151.6ZM1659.87 151L1704.87 99H1761.87L1691.47 185V247H1630.47V185L1560.47 99H1617.47L1659.87 151ZM211.412 326.184C216.66 325.965 220.76 325.856 223.712 325.856C239.565 325.856 252.412 328.097 262.252 332.58C272.201 337.063 277.176 345.864 277.176 358.984C277.176 376.149 269.577 387.739 254.38 393.752C239.183 399.765 222.072 402.772 203.048 402.772C183.915 402.772 166.367 399.765 150.404 393.752C134.441 387.739 126.46 376.149 126.46 358.984H174.676C174.676 365.325 177.464 369.371 183.04 371.12C188.616 372.869 195.285 373.744 203.048 373.744C210.373 373.744 216.66 372.596 221.908 370.3C227.156 368.004 229.78 364.451 229.78 359.64C229.78 355.595 226.992 352.971 221.416 351.768C215.949 350.456 209.553 349.8 202.228 349.8L185.828 349.964C174.895 349.964 165.164 349.199 156.636 347.668C148.217 346.028 141.056 342.693 135.152 337.664C129.357 332.525 126.46 325.036 126.46 315.196C126.46 303.279 130.669 294.313 139.088 288.3C147.616 282.177 157.347 278.296 168.28 276.656C179.213 274.907 190.803 274.032 203.048 274.032C222.072 274.032 239.183 277.039 254.38 283.052C269.577 288.956 277.176 300.545 277.176 317.82H229.78C229.78 313.228 227.156 309.784 221.908 307.488C216.769 305.192 210.483 303.935 203.048 303.716C195.176 303.716 188.452 304.591 182.876 306.34C177.409 308.089 174.676 310.877 174.676 314.704C174.676 319.077 177.464 322.084 183.04 323.724C188.616 325.364 194.903 326.239 201.9 326.348L211.412 326.184ZM363.968 275.016C379.384 275.016 393.269 277.804 405.624 283.38C417.979 288.847 427.655 296.445 434.652 306.176C441.649 315.797 445.148 326.676 445.148 338.812C445.148 350.839 441.649 361.663 434.652 371.284C427.655 380.905 417.979 388.504 405.624 394.08C393.269 399.547 379.384 402.28 363.968 402.28C349.208 402.28 335.541 399.547 322.968 394.08C310.504 388.504 300.555 380.905 293.12 371.284C285.795 361.553 282.132 350.729 282.132 338.812C282.132 326.785 285.795 315.907 293.12 306.176C300.555 296.445 310.504 288.847 322.968 283.38C335.541 277.804 349.208 275.016 363.968 275.016ZM364.132 367.512C369.38 367.512 374.409 366.364 379.22 364.068C384.14 361.772 388.131 358.437 391.192 354.064C394.253 349.691 395.784 344.607 395.784 338.812C395.784 332.908 394.253 327.824 391.192 323.56C388.131 319.187 384.14 315.852 379.22 313.556C374.409 311.26 369.38 310.112 364.132 310.112C358.993 310.112 353.964 311.26 349.044 313.556C344.233 315.852 340.243 319.187 337.072 323.56C334.011 327.824 332.48 332.908 332.48 338.812C332.48 344.607 334.011 349.691 337.072 354.064C340.243 358.437 344.233 361.772 349.044 364.068C353.964 366.364 358.993 367.512 364.132 367.512ZM500.156 277.64V363.74H573.136V399H453.416V277.64H500.156ZM681.029 277.64H728.753V338.976C728.753 350.784 725.309 361.553 718.421 371.284C711.642 380.905 702.567 388.504 691.197 394.08C679.826 399.547 667.471 402.28 654.133 402.28C639.482 402.28 626.253 399.547 614.445 394.08C602.637 388.613 593.343 381.124 586.565 371.612C579.895 361.991 576.506 351.221 576.397 339.304V277.64H625.105V338.812C625.105 347.559 627.729 354.009 632.977 358.164C638.334 362.209 645.441 364.232 654.297 364.232C661.513 364.232 667.745 362.155 672.993 358C678.35 353.736 681.029 347.34 681.029 338.812V277.64ZM736.995 315.36V277.64H883.119L736.995 315.36ZM883.119 277.64V315.36H833.755V399H787.015V315.36H736.995V277.64H883.119ZM938.824 399H892.084V277.64H938.824V399ZM1028.94 275.016C1044.35 275.016 1058.24 277.804 1070.59 283.38C1082.95 288.847 1092.62 296.445 1099.62 306.176C1106.62 315.797 1110.12 326.676 1110.12 338.812C1110.12 350.839 1106.62 361.663 1099.62 371.284C1092.62 380.905 1082.95 388.504 1070.59 394.08C1058.24 399.547 1044.35 402.28 1028.94 402.28C1014.18 402.28 1000.51 399.547 987.937 394.08C975.473 388.504 965.523 380.905 958.089 371.284C950.763 361.553 947.101 350.729 947.101 338.812C947.101 326.785 950.763 315.907 958.089 306.176C965.523 296.445 975.473 288.847 987.937 283.38C1000.51 277.804 1014.18 275.016 1028.94 275.016ZM1029.1 367.512C1034.35 367.512 1039.38 366.364 1044.19 364.068C1049.11 361.772 1053.1 358.437 1056.16 354.064C1059.22 349.691 1060.75 344.607 1060.75 338.812C1060.75 332.908 1059.22 327.824 1056.16 323.56C1053.1 319.187 1049.11 315.852 1044.19 313.556C1039.38 311.26 1034.35 310.112 1029.1 310.112C1023.96 310.112 1018.93 311.26 1014.01 313.556C1009.2 315.852 1005.21 319.187 1002.04 323.56C998.979 327.824 997.449 332.908 997.449 338.812C997.449 344.607 998.979 349.691 1002.04 354.064C1005.21 358.437 1009.2 361.772 1014.01 364.068C1018.93 366.364 1023.96 367.512 1029.1 367.512ZM1165.12 399H1118.38V277.64L1165.12 399ZM1279.1 399H1232.36H1279.1ZM1232.36 346.028V277.64H1279.1V399H1232.36L1165.12 330.612V399H1118.38V277.64H1165.12L1232.36 346.028ZM1372.22 326.184C1377.47 325.965 1381.57 325.856 1384.52 325.856C1400.38 325.856 1413.22 328.097 1423.06 332.58C1433.01 337.063 1437.99 345.864 1437.99 358.984C1437.99 376.149 1430.39 387.739 1415.19 393.752C1400 399.765 1382.88 402.772 1363.86 402.772C1344.73 402.772 1327.18 399.765 1311.22 393.752C1295.25 387.739 1287.27 376.149 1287.27 358.984H1335.49C1335.49 365.325 1338.28 369.371 1343.85 371.12C1349.43 372.869 1356.1 373.744 1363.86 373.744C1371.19 373.744 1377.47 372.596 1382.72 370.3C1387.97 368.004 1390.59 364.451 1390.59 359.64C1390.59 355.595 1387.8 352.971 1382.23 351.768C1376.76 350.456 1370.37 349.8 1363.04 349.8L1346.64 349.964C1335.71 349.964 1325.98 349.199 1317.45 347.668C1309.03 346.028 1301.87 342.693 1295.96 337.664C1290.17 332.525 1287.27 325.036 1287.27 315.196C1287.27 303.279 1291.48 294.313 1299.9 288.3C1308.43 282.177 1318.16 278.296 1329.09 276.656C1340.03 274.907 1351.62 274.032 1363.86 274.032C1382.88 274.032 1400 277.039 1415.19 283.052C1430.39 288.956 1437.99 300.545 1437.99 317.82H1390.59C1390.59 313.228 1387.97 309.784 1382.72 307.488C1377.58 305.192 1371.3 303.935 1363.86 303.716C1355.99 303.716 1349.26 304.591 1343.69 306.34C1338.22 308.089 1335.49 310.877 1335.49 314.704C1335.49 319.077 1338.28 322.084 1343.85 323.724C1349.43 325.364 1355.72 326.239 1362.71 326.348L1372.22 326.184Z" fill="white"/>
<path d="M1554.18 399V404H1561.47L1558.85 397.203L1554.18 399ZM1507.44 399H1502.44V404H1507.44V399ZM1507.44 277.64L1512.11 275.843L1502.44 277.64H1507.44ZM1621.42 346.028L1617.86 349.533L1626.42 358.245V346.028H1621.42ZM1621.42 277.64V272.64H1616.42V277.64H1621.42ZM1668.16 277.64H1673.16V272.64H1668.16V277.64ZM1668.16 399V404H1673.16V399H1668.16ZM1621.42 399L1617.86 402.505L1619.33 404H1621.42V399ZM1554.18 330.612L1557.75 327.107L1549.18 318.395V330.612H1554.18ZM1554.18 399V404H1559.18V399H1554.18ZM1507.44 399H1502.44V404H1507.44V399ZM1507.44 277.64V272.64H1502.44V277.64H1507.44ZM1554.18 277.64L1557.75 274.135L1556.28 272.64H1554.18V277.64ZM1554.18 394H1507.44V404H1554.18V394ZM1512.44 399V277.64H1502.44V399H1512.44ZM1502.78 279.437L1549.52 400.797L1558.85 397.203L1512.11 275.843L1502.78 279.437ZM1668.16 394H1621.42V404H1668.16V394ZM1621.42 404H1668.16V394H1621.42V404ZM1626.42 346.028V277.64H1616.42V346.028H1626.42ZM1621.42 282.64H1668.16V272.64H1621.42V282.64ZM1663.16 277.64V399H1673.16V277.64H1663.16ZM1668.16 394H1621.42V404H1668.16V394ZM1624.99 395.495L1557.75 327.107L1550.62 334.117L1617.86 402.505L1624.99 395.495ZM1549.18 330.612V399H1559.18V330.612H1549.18ZM1554.18 394H1507.44V404H1554.18V394ZM1512.44 399V277.64H1502.44V399H1512.44ZM1507.44 282.64H1554.18V272.64H1507.44V282.64ZM1550.62 281.145L1617.86 349.533L1624.99 342.523L1557.75 274.135L1550.62 281.145ZM1726.35 399V404H1731.35V399H1726.35ZM1679.61 399H1674.61V404H1679.61V399ZM1679.61 277.64V272.64H1674.61V277.64H1679.61ZM1726.35 277.64H1731.35V272.64H1726.35V277.64ZM1726.35 394H1679.61V404H1726.35V394ZM1684.61 399V277.64H1674.61V399H1684.61ZM1679.61 282.64H1726.35V272.64H1679.61V282.64ZM1721.35 277.64V399H1731.35V277.64H1721.35Z" fill="white"/>
</svg>
